%TF.GenerationSoftware,KiCad,Pcbnew,8.0.1*%
%TF.CreationDate,2025-01-11T03:08:54+01:00*%
%TF.ProjectId,Verteilerplatine,56657274-6569-46c6-9572-706c6174696e,rev?*%
%TF.SameCoordinates,Original*%
%TF.FileFunction,Copper,L2,Bot*%
%TF.FilePolarity,Positive*%
%FSLAX46Y46*%
G04 Gerber Fmt 4.6, Leading zero omitted, Abs format (unit mm)*
G04 Created by KiCad (PCBNEW 8.0.1) date 2025-01-11 03:08:54*
%MOMM*%
%LPD*%
G01*
G04 APERTURE LIST*
G04 Aperture macros list*
%AMRoundRect*
0 Rectangle with rounded corners*
0 $1 Rounding radius*
0 $2 $3 $4 $5 $6 $7 $8 $9 X,Y pos of 4 corners*
0 Add a 4 corners polygon primitive as box body*
4,1,4,$2,$3,$4,$5,$6,$7,$8,$9,$2,$3,0*
0 Add four circle primitives for the rounded corners*
1,1,$1+$1,$2,$3*
1,1,$1+$1,$4,$5*
1,1,$1+$1,$6,$7*
1,1,$1+$1,$8,$9*
0 Add four rect primitives between the rounded corners*
20,1,$1+$1,$2,$3,$4,$5,0*
20,1,$1+$1,$4,$5,$6,$7,0*
20,1,$1+$1,$6,$7,$8,$9,0*
20,1,$1+$1,$8,$9,$2,$3,0*%
G04 Aperture macros list end*
%TA.AperFunction,ComponentPad*%
%ADD10R,1.651000X1.651000*%
%TD*%
%TA.AperFunction,ComponentPad*%
%ADD11C,1.651000*%
%TD*%
%TA.AperFunction,ComponentPad*%
%ADD12RoundRect,0.249999X-1.025001X-1.025001X1.025001X-1.025001X1.025001X1.025001X-1.025001X1.025001X0*%
%TD*%
%TA.AperFunction,ComponentPad*%
%ADD13R,2.000000X2.000000*%
%TD*%
%TA.AperFunction,ComponentPad*%
%ADD14C,2.000000*%
%TD*%
%TA.AperFunction,ComponentPad*%
%ADD15R,1.524000X1.524000*%
%TD*%
%TA.AperFunction,ComponentPad*%
%ADD16C,1.524000*%
%TD*%
%TA.AperFunction,ComponentPad*%
%ADD17C,3.500000*%
%TD*%
%TA.AperFunction,ComponentPad*%
%ADD18R,1.800000X1.800000*%
%TD*%
%TA.AperFunction,ComponentPad*%
%ADD19C,1.800000*%
%TD*%
%TA.AperFunction,ComponentPad*%
%ADD20R,1.600000X1.600000*%
%TD*%
%TA.AperFunction,ComponentPad*%
%ADD21C,1.600000*%
%TD*%
%TA.AperFunction,ComponentPad*%
%ADD22O,2.000000X2.000000*%
%TD*%
%TA.AperFunction,ComponentPad*%
%ADD23O,1.600000X1.600000*%
%TD*%
G04 APERTURE END LIST*
D10*
%TO.P,L7805,1,INPUT*%
%TO.N,U_eff*%
X148920000Y-86500000D03*
D11*
%TO.P,L7805,2,GROUND*%
%TO.N,GND*%
X151460000Y-86500000D03*
%TO.P,L7805,3,OUTPUT*%
%TO.N,5V*%
X154000000Y-86500000D03*
%TD*%
D12*
%TO.P,H7,1,1*%
%TO.N,U_dp*%
X129250000Y-105750000D03*
%TD*%
D13*
%TO.P,Cout1,1*%
%TO.N,5V*%
X142300000Y-103475000D03*
D14*
%TO.P,Cout1,2*%
%TO.N,GND*%
X137300000Y-103475000D03*
%TD*%
D15*
%TO.P,J1,1,VBUS*%
%TO.N,5V*%
X151790000Y-100820000D03*
D16*
%TO.P,J1,2,D-*%
%TO.N,Net-(J1-D+)*%
X151790000Y-98320000D03*
%TO.P,J1,3,D+*%
X151790000Y-96320000D03*
%TO.P,J1,4,GND*%
%TO.N,GND*%
X151790000Y-93820000D03*
D17*
%TO.P,J1,5,SSRX-*%
%TO.N,unconnected-(J1-SSRX--Pad5)_0*%
X154500000Y-103890000D03*
%TO.N,unconnected-(J1-SSRX--Pad5)*%
X154500000Y-90750000D03*
%TD*%
D12*
%TO.P,H8,1,1*%
%TO.N,U_dm*%
X129250000Y-94500000D03*
%TD*%
D18*
%TO.P,D1,1,K*%
%TO.N,GND*%
X155275000Y-109000000D03*
D19*
%TO.P,D1,2,A*%
%TO.N,Net-(D1-A)*%
X152735000Y-109000000D03*
%TD*%
D20*
%TO.P,Cout3,1*%
%TO.N,U_eff*%
X145250000Y-92705113D03*
D21*
%TO.P,Cout3,2*%
%TO.N,GND*%
X145250000Y-90205113D03*
%TD*%
D13*
%TO.P,TC-B40R,1,+*%
%TO.N,U_eff*%
X140000000Y-92330000D03*
D22*
%TO.P,TC-B40R,2*%
%TO.N,U_dm*%
X140000000Y-87250000D03*
%TO.P,TC-B40R,3,-*%
%TO.N,GND*%
X134920000Y-87250000D03*
%TO.P,TC-B40R,4*%
%TO.N,U_dp*%
X134920000Y-92330000D03*
%TD*%
D12*
%TO.P,H6,1,1*%
%TO.N,U_dm*%
X129250000Y-90500000D03*
%TD*%
%TO.P,H5,1,1*%
%TO.N,U_dp*%
X129250000Y-101750000D03*
%TD*%
D21*
%TO.P,R1,1*%
%TO.N,5V*%
X147000000Y-103440000D03*
D23*
%TO.P,R1,2*%
%TO.N,Net-(D1-A)*%
X147000000Y-111060000D03*
%TD*%
%TA.AperFunction,Conductor*%
%TO.N,GND*%
G36*
X161506922Y-83251281D02*
G01*
X161523411Y-83253138D01*
X161597267Y-83261459D01*
X161624324Y-83267634D01*
X161703546Y-83295355D01*
X161728553Y-83307399D01*
X161799602Y-83352043D01*
X161821310Y-83369355D01*
X161880644Y-83428689D01*
X161897957Y-83450398D01*
X161942601Y-83521448D01*
X161954648Y-83546465D01*
X161982361Y-83625663D01*
X161988540Y-83652735D01*
X161998720Y-83743088D01*
X161999500Y-83756971D01*
X161999500Y-112243038D01*
X161998720Y-112256923D01*
X161988540Y-112347265D01*
X161982362Y-112374334D01*
X161954648Y-112453537D01*
X161942600Y-112478555D01*
X161897957Y-112549604D01*
X161880644Y-112571313D01*
X161821313Y-112630644D01*
X161799604Y-112647957D01*
X161728552Y-112692602D01*
X161703535Y-112704649D01*
X161624337Y-112732362D01*
X161597265Y-112738541D01*
X161506911Y-112748721D01*
X161493028Y-112749501D01*
X127506962Y-112749501D01*
X127493078Y-112748721D01*
X127481355Y-112747400D01*
X127402734Y-112738541D01*
X127375664Y-112732363D01*
X127296459Y-112704648D01*
X127271443Y-112692600D01*
X127200399Y-112647961D01*
X127178688Y-112630648D01*
X127119353Y-112571312D01*
X127102041Y-112549603D01*
X127057395Y-112478550D01*
X127045351Y-112453540D01*
X127017636Y-112374334D01*
X127011458Y-112347266D01*
X127011274Y-112345635D01*
X127001280Y-112256930D01*
X127000500Y-112243047D01*
X127000500Y-110250006D01*
X127994357Y-110250006D01*
X128014890Y-110497813D01*
X128014892Y-110497825D01*
X128075936Y-110738882D01*
X128175826Y-110966607D01*
X128311833Y-111174783D01*
X128311836Y-111174786D01*
X128480256Y-111357739D01*
X128676491Y-111510475D01*
X128895190Y-111628829D01*
X129130386Y-111709572D01*
X129375665Y-111750501D01*
X129624335Y-111750501D01*
X129869614Y-111709572D01*
X130104810Y-111628829D01*
X130323509Y-111510475D01*
X130519744Y-111357739D01*
X130688164Y-111174786D01*
X130763157Y-111060001D01*
X145694532Y-111060001D01*
X145714364Y-111286686D01*
X145714366Y-111286697D01*
X145773258Y-111506488D01*
X145773261Y-111506497D01*
X145869431Y-111712732D01*
X145869432Y-111712734D01*
X145999954Y-111899141D01*
X146160858Y-112060045D01*
X146160861Y-112060047D01*
X146347266Y-112190568D01*
X146553504Y-112286739D01*
X146773308Y-112345635D01*
X146935230Y-112359801D01*
X146999998Y-112365468D01*
X147000000Y-112365468D01*
X147000002Y-112365468D01*
X147056673Y-112360509D01*
X147226692Y-112345635D01*
X147446496Y-112286739D01*
X147652734Y-112190568D01*
X147839139Y-112060047D01*
X148000047Y-111899139D01*
X148130568Y-111712734D01*
X148226739Y-111506496D01*
X148285635Y-111286692D01*
X148305468Y-111060000D01*
X148285635Y-110833308D01*
X148226739Y-110613504D01*
X148130568Y-110407266D01*
X148000047Y-110220861D01*
X148000045Y-110220858D01*
X147839141Y-110059954D01*
X147652734Y-109929432D01*
X147652732Y-109929431D01*
X147446497Y-109833261D01*
X147446488Y-109833258D01*
X147226697Y-109774366D01*
X147226693Y-109774365D01*
X147226692Y-109774365D01*
X147226691Y-109774364D01*
X147226686Y-109774364D01*
X147000002Y-109754532D01*
X146999998Y-109754532D01*
X146773313Y-109774364D01*
X146773302Y-109774366D01*
X146553511Y-109833258D01*
X146553502Y-109833261D01*
X146347267Y-109929431D01*
X146347265Y-109929432D01*
X146160858Y-110059954D01*
X145999954Y-110220858D01*
X145869432Y-110407265D01*
X145869431Y-110407267D01*
X145773261Y-110613502D01*
X145773258Y-110613511D01*
X145714366Y-110833302D01*
X145714364Y-110833313D01*
X145694532Y-111059998D01*
X145694532Y-111060001D01*
X130763157Y-111060001D01*
X130824173Y-110966608D01*
X130924063Y-110738882D01*
X130985108Y-110497822D01*
X130992612Y-110407265D01*
X131005643Y-110250006D01*
X131005643Y-110249995D01*
X130985109Y-110002188D01*
X130985107Y-110002176D01*
X130924063Y-109761119D01*
X130824173Y-109533394D01*
X130688166Y-109325218D01*
X130643139Y-109276306D01*
X130519744Y-109142263D01*
X130336972Y-109000006D01*
X151329700Y-109000006D01*
X151348864Y-109231297D01*
X151348866Y-109231308D01*
X151405842Y-109456300D01*
X151499075Y-109668848D01*
X151626016Y-109863147D01*
X151626019Y-109863151D01*
X151626021Y-109863153D01*
X151783216Y-110033913D01*
X151783219Y-110033915D01*
X151783222Y-110033918D01*
X151966365Y-110176464D01*
X151966371Y-110176468D01*
X151966374Y-110176470D01*
X152170497Y-110286936D01*
X152284487Y-110326068D01*
X152390015Y-110362297D01*
X152390017Y-110362297D01*
X152390019Y-110362298D01*
X152618951Y-110400500D01*
X152618952Y-110400500D01*
X152851048Y-110400500D01*
X152851049Y-110400500D01*
X153079981Y-110362298D01*
X153299503Y-110286936D01*
X153503626Y-110176470D01*
X153686784Y-110033913D01*
X153695511Y-110024432D01*
X153755394Y-109988441D01*
X153825232Y-109990538D01*
X153882850Y-110030060D01*
X153902924Y-110065080D01*
X153931645Y-110142086D01*
X153931649Y-110142093D01*
X154017809Y-110257187D01*
X154017812Y-110257190D01*
X154132906Y-110343350D01*
X154132913Y-110343354D01*
X154267620Y-110393596D01*
X154267627Y-110393598D01*
X154327155Y-110399999D01*
X154327172Y-110400000D01*
X155025000Y-110400000D01*
X155025000Y-109375277D01*
X155101306Y-109419333D01*
X155215756Y-109450000D01*
X155334244Y-109450000D01*
X155448694Y-109419333D01*
X155525000Y-109375277D01*
X155525000Y-110400000D01*
X156222828Y-110400000D01*
X156222844Y-110399999D01*
X156282372Y-110393598D01*
X156282379Y-110393596D01*
X156417086Y-110343354D01*
X156417093Y-110343350D01*
X156532187Y-110257190D01*
X156532190Y-110257187D01*
X156537566Y-110250006D01*
X158244357Y-110250006D01*
X158264890Y-110497813D01*
X158264892Y-110497825D01*
X158325936Y-110738882D01*
X158425826Y-110966607D01*
X158561833Y-111174783D01*
X158561836Y-111174786D01*
X158730256Y-111357739D01*
X158926491Y-111510475D01*
X159145190Y-111628829D01*
X159380386Y-111709572D01*
X159625665Y-111750501D01*
X159874335Y-111750501D01*
X160119614Y-111709572D01*
X160354810Y-111628829D01*
X160573509Y-111510475D01*
X160769744Y-111357739D01*
X160938164Y-111174786D01*
X161074173Y-110966608D01*
X161174063Y-110738882D01*
X161235108Y-110497822D01*
X161242612Y-110407265D01*
X161255643Y-110250006D01*
X161255643Y-110249995D01*
X161235109Y-110002188D01*
X161235107Y-110002176D01*
X161174063Y-109761119D01*
X161074173Y-109533394D01*
X160938166Y-109325218D01*
X160893139Y-109276306D01*
X160769744Y-109142263D01*
X160573509Y-108989527D01*
X160573507Y-108989526D01*
X160573506Y-108989525D01*
X160354811Y-108871173D01*
X160354802Y-108871170D01*
X160119616Y-108790430D01*
X159874335Y-108749501D01*
X159625665Y-108749501D01*
X159380383Y-108790430D01*
X159145197Y-108871170D01*
X159145188Y-108871173D01*
X158926493Y-108989525D01*
X158730257Y-109142262D01*
X158561833Y-109325218D01*
X158425826Y-109533394D01*
X158325936Y-109761119D01*
X158264892Y-110002176D01*
X158264890Y-110002188D01*
X158244357Y-110249995D01*
X158244357Y-110250006D01*
X156537566Y-110250006D01*
X156618350Y-110142093D01*
X156618354Y-110142086D01*
X156668596Y-110007379D01*
X156668598Y-110007372D01*
X156674999Y-109947844D01*
X156675000Y-109947827D01*
X156675000Y-109250000D01*
X155650278Y-109250000D01*
X155694333Y-109173694D01*
X155725000Y-109059244D01*
X155725000Y-108940756D01*
X155694333Y-108826306D01*
X155650278Y-108750000D01*
X156675000Y-108750000D01*
X156675000Y-108052172D01*
X156674999Y-108052155D01*
X156668598Y-107992627D01*
X156668596Y-107992620D01*
X156618354Y-107857913D01*
X156618350Y-107857906D01*
X156532190Y-107742812D01*
X156532187Y-107742809D01*
X156417093Y-107656649D01*
X156417086Y-107656645D01*
X156282379Y-107606403D01*
X156282372Y-107606401D01*
X156222844Y-107600000D01*
X155525000Y-107600000D01*
X155525000Y-108624722D01*
X155448694Y-108580667D01*
X155334244Y-108550000D01*
X155215756Y-108550000D01*
X155101306Y-108580667D01*
X155025000Y-108624722D01*
X155025000Y-107600000D01*
X154327155Y-107600000D01*
X154267627Y-107606401D01*
X154267620Y-107606403D01*
X154132913Y-107656645D01*
X154132906Y-107656649D01*
X154017812Y-107742809D01*
X154017809Y-107742812D01*
X153931649Y-107857906D01*
X153931646Y-107857911D01*
X153902924Y-107934920D01*
X153861052Y-107990853D01*
X153795588Y-108015270D01*
X153727315Y-108000418D01*
X153695514Y-107975571D01*
X153686784Y-107966087D01*
X153686779Y-107966083D01*
X153686777Y-107966081D01*
X153503634Y-107823535D01*
X153503628Y-107823531D01*
X153299504Y-107713064D01*
X153299495Y-107713061D01*
X153079984Y-107637702D01*
X152892404Y-107606401D01*
X152851049Y-107599500D01*
X152618951Y-107599500D01*
X152577596Y-107606401D01*
X152390015Y-107637702D01*
X152170504Y-107713061D01*
X152170495Y-107713064D01*
X151966371Y-107823531D01*
X151966365Y-107823535D01*
X151783222Y-107966081D01*
X151783219Y-107966084D01*
X151783216Y-107966086D01*
X151783216Y-107966087D01*
X151758791Y-107992620D01*
X151626016Y-108136852D01*
X151499075Y-108331151D01*
X151405842Y-108543699D01*
X151348866Y-108768691D01*
X151348864Y-108768702D01*
X151329700Y-108999993D01*
X151329700Y-109000006D01*
X130336972Y-109000006D01*
X130323509Y-108989527D01*
X130323507Y-108989526D01*
X130323506Y-108989525D01*
X130104811Y-108871173D01*
X130104802Y-108871170D01*
X129869616Y-108790430D01*
X129624335Y-108749501D01*
X129375665Y-108749501D01*
X129130383Y-108790430D01*
X128895197Y-108871170D01*
X128895188Y-108871173D01*
X128676493Y-108989525D01*
X128480257Y-109142262D01*
X128311833Y-109325218D01*
X128175826Y-109533394D01*
X128075936Y-109761119D01*
X128014892Y-110002176D01*
X128014890Y-110002188D01*
X127994357Y-110249995D01*
X127994357Y-110250006D01*
X127000500Y-110250006D01*
X127000500Y-106825017D01*
X127474500Y-106825017D01*
X127485000Y-106927796D01*
X127485001Y-106927798D01*
X127540186Y-107094335D01*
X127632288Y-107243656D01*
X127756344Y-107367712D01*
X127905665Y-107459814D01*
X128072202Y-107514999D01*
X128174990Y-107525500D01*
X128174995Y-107525500D01*
X130325005Y-107525500D01*
X130325010Y-107525500D01*
X130427798Y-107514999D01*
X130594335Y-107459814D01*
X130743656Y-107367712D01*
X130867712Y-107243656D01*
X130959814Y-107094335D01*
X131014999Y-106927798D01*
X131025500Y-106825010D01*
X131025500Y-104674990D01*
X131014999Y-104572202D01*
X130959814Y-104405665D01*
X130867712Y-104256344D01*
X130743656Y-104132288D01*
X130594335Y-104040186D01*
X130427798Y-103985001D01*
X130427796Y-103985000D01*
X130325017Y-103974500D01*
X130325010Y-103974500D01*
X128174990Y-103974500D01*
X128174982Y-103974500D01*
X128072203Y-103985000D01*
X128072202Y-103985001D01*
X127989669Y-104012349D01*
X127905667Y-104040185D01*
X127905662Y-104040187D01*
X127756342Y-104132289D01*
X127632289Y-104256342D01*
X127540187Y-104405662D01*
X127540185Y-104405667D01*
X127528793Y-104440047D01*
X127485001Y-104572202D01*
X127485001Y-104572203D01*
X127485000Y-104572203D01*
X127474500Y-104674982D01*
X127474500Y-106825017D01*
X127000500Y-106825017D01*
X127000500Y-102825017D01*
X127474500Y-102825017D01*
X127485000Y-102927796D01*
X127517848Y-103026923D01*
X127540186Y-103094335D01*
X127632288Y-103243656D01*
X127756344Y-103367712D01*
X127905665Y-103459814D01*
X128072202Y-103514999D01*
X128174990Y-103525500D01*
X128174995Y-103525500D01*
X130325005Y-103525500D01*
X130325010Y-103525500D01*
X130427798Y-103514999D01*
X130548492Y-103475005D01*
X135794859Y-103475005D01*
X135815385Y-103722729D01*
X135815387Y-103722738D01*
X135876412Y-103963717D01*
X135976266Y-104191364D01*
X136076564Y-104344882D01*
X136817037Y-103604409D01*
X136834075Y-103667993D01*
X136899901Y-103782007D01*
X136992993Y-103875099D01*
X137107007Y-103940925D01*
X137170590Y-103957962D01*
X136429942Y-104698609D01*
X136476768Y-104735055D01*
X136476770Y-104735056D01*
X136695385Y-104853364D01*
X136695396Y-104853369D01*
X136930506Y-104934083D01*
X137175707Y-104975000D01*
X137424293Y-104975000D01*
X137669493Y-104934083D01*
X137904603Y-104853369D01*
X137904614Y-104853364D01*
X138123228Y-104735057D01*
X138123231Y-104735055D01*
X138170056Y-104698609D01*
X137994317Y-104522870D01*
X140799500Y-104522870D01*
X140799501Y-104522876D01*
X140805908Y-104582483D01*
X140856202Y-104717328D01*
X140856206Y-104717335D01*
X140942452Y-104832544D01*
X140942455Y-104832547D01*
X141057664Y-104918793D01*
X141057671Y-104918797D01*
X141192517Y-104969091D01*
X141192516Y-104969091D01*
X141199444Y-104969835D01*
X141252127Y-104975500D01*
X143347872Y-104975499D01*
X143407483Y-104969091D01*
X143542331Y-104918796D01*
X143657546Y-104832546D01*
X143743796Y-104717331D01*
X143794091Y-104582483D01*
X143800500Y-104522873D01*
X143800499Y-103440001D01*
X145694532Y-103440001D01*
X145714364Y-103666686D01*
X145714366Y-103666697D01*
X145773258Y-103886488D01*
X145773261Y-103886497D01*
X145869431Y-104092732D01*
X145869432Y-104092734D01*
X145999954Y-104279141D01*
X146160858Y-104440045D01*
X146160861Y-104440047D01*
X146347266Y-104570568D01*
X146553504Y-104666739D01*
X146773308Y-104725635D01*
X146935230Y-104739801D01*
X146999998Y-104745468D01*
X147000000Y-104745468D01*
X147000002Y-104745468D01*
X147056673Y-104740509D01*
X147226692Y-104725635D01*
X147446496Y-104666739D01*
X147652734Y-104570568D01*
X147839139Y-104440047D01*
X148000047Y-104279139D01*
X148130568Y-104092734D01*
X148225102Y-103890007D01*
X152244671Y-103890007D01*
X152263964Y-104184363D01*
X152263965Y-104184373D01*
X152263966Y-104184380D01*
X152295891Y-104344882D01*
X152321518Y-104473716D01*
X152321521Y-104473730D01*
X152416349Y-104753080D01*
X152546825Y-105017660D01*
X152546829Y-105017667D01*
X152710725Y-105262955D01*
X152905241Y-105484758D01*
X153127043Y-105679273D01*
X153372335Y-105843172D01*
X153636923Y-105973652D01*
X153916278Y-106068481D01*
X154205620Y-106126034D01*
X154233888Y-106127886D01*
X154499993Y-106145329D01*
X154500000Y-106145329D01*
X154500007Y-106145329D01*
X154735675Y-106129881D01*
X154794380Y-106126034D01*
X155083722Y-106068481D01*
X155363077Y-105973652D01*
X155627665Y-105843172D01*
X155872957Y-105679273D01*
X156094758Y-105484758D01*
X156289273Y-105262957D01*
X156453172Y-105017665D01*
X156583652Y-104753077D01*
X156678481Y-104473722D01*
X156736034Y-104184380D01*
X156749102Y-103985001D01*
X156755329Y-103890007D01*
X156755329Y-103889992D01*
X156736035Y-103595636D01*
X156736034Y-103595620D01*
X156678481Y-103306278D01*
X156583652Y-103026923D01*
X156453172Y-102762336D01*
X156289273Y-102517043D01*
X156221667Y-102439953D01*
X156094758Y-102295241D01*
X155872955Y-102100725D01*
X155627667Y-101936829D01*
X155627660Y-101936825D01*
X155363080Y-101806349D01*
X155083730Y-101711521D01*
X155083724Y-101711519D01*
X155083722Y-101711519D01*
X154794380Y-101653966D01*
X154794373Y-101653965D01*
X154794363Y-101653964D01*
X154500007Y-101634671D01*
X154499993Y-101634671D01*
X154205636Y-101653964D01*
X154205624Y-101653965D01*
X154205620Y-101653966D01*
X154205612Y-101653967D01*
X154205609Y-101653968D01*
X153916283Y-101711518D01*
X153916269Y-101711521D01*
X153636919Y-101806349D01*
X153372334Y-101936828D01*
X153127041Y-102100728D01*
X152905241Y-102295241D01*
X152710728Y-102517041D01*
X152546828Y-102762334D01*
X152416349Y-103026919D01*
X152321521Y-103306269D01*
X152321518Y-103306283D01*
X152263968Y-103595609D01*
X152263964Y-103595636D01*
X152244671Y-103889992D01*
X152244671Y-103890007D01*
X148225102Y-103890007D01*
X148226739Y-103886496D01*
X148285635Y-103666692D01*
X148302634Y-103472384D01*
X148305468Y-103440001D01*
X148305468Y-103439998D01*
X148288290Y-103243656D01*
X148285635Y-103213308D01*
X148235694Y-103026923D01*
X148226741Y-102993511D01*
X148226738Y-102993502D01*
X148218110Y-102975000D01*
X148130568Y-102787266D01*
X148000047Y-102600861D01*
X148000045Y-102600858D01*
X147839141Y-102439954D01*
X147652734Y-102309432D01*
X147652732Y-102309431D01*
X147446497Y-102213261D01*
X147446488Y-102213258D01*
X147226697Y-102154366D01*
X147226693Y-102154365D01*
X147226692Y-102154365D01*
X147226691Y-102154364D01*
X147226686Y-102154364D01*
X147000002Y-102134532D01*
X146999998Y-102134532D01*
X146773313Y-102154364D01*
X146773302Y-102154366D01*
X146553511Y-102213258D01*
X146553502Y-102213261D01*
X146347267Y-102309431D01*
X146347265Y-102309432D01*
X146160858Y-102439954D01*
X145999954Y-102600858D01*
X145869432Y-102787265D01*
X145869431Y-102787267D01*
X145773261Y-102993502D01*
X145773258Y-102993511D01*
X145714366Y-103213302D01*
X145714364Y-103213313D01*
X145694532Y-103439998D01*
X145694532Y-103440001D01*
X143800499Y-103440001D01*
X143800499Y-102427128D01*
X143794091Y-102367517D01*
X143772426Y-102309431D01*
X143743797Y-102232671D01*
X143743793Y-102232664D01*
X143657547Y-102117455D01*
X143657544Y-102117452D01*
X143542335Y-102031206D01*
X143542328Y-102031202D01*
X143407482Y-101980908D01*
X143407483Y-101980908D01*
X143347883Y-101974501D01*
X143347881Y-101974500D01*
X143347873Y-101974500D01*
X143347864Y-101974500D01*
X141252129Y-101974500D01*
X141252123Y-101974501D01*
X141192516Y-101980908D01*
X141057671Y-102031202D01*
X141057664Y-102031206D01*
X140942455Y-102117452D01*
X140942452Y-102117455D01*
X140856206Y-102232664D01*
X140856202Y-102232671D01*
X140805908Y-102367517D01*
X140799501Y-102427116D01*
X140799501Y-102427123D01*
X140799500Y-102427135D01*
X140799500Y-104522870D01*
X137994317Y-104522870D01*
X137429409Y-103957962D01*
X137492993Y-103940925D01*
X137607007Y-103875099D01*
X137700099Y-103782007D01*
X137765925Y-103667993D01*
X137782962Y-103604410D01*
X138523434Y-104344882D01*
X138623731Y-104191369D01*
X138723587Y-103963717D01*
X138784612Y-103722738D01*
X138784614Y-103722729D01*
X138805141Y-103475005D01*
X138805141Y-103474994D01*
X138784614Y-103227270D01*
X138784612Y-103227261D01*
X138723587Y-102986282D01*
X138623731Y-102758630D01*
X138523434Y-102605116D01*
X137782962Y-103345589D01*
X137765925Y-103282007D01*
X137700099Y-103167993D01*
X137607007Y-103074901D01*
X137492993Y-103009075D01*
X137429410Y-102992037D01*
X138170057Y-102251390D01*
X138170056Y-102251389D01*
X138123229Y-102214943D01*
X137904614Y-102096635D01*
X137904603Y-102096630D01*
X137669493Y-102015916D01*
X137424293Y-101975000D01*
X137175707Y-101975000D01*
X136930506Y-102015916D01*
X136695396Y-102096630D01*
X136695390Y-102096632D01*
X136476761Y-102214949D01*
X136429942Y-102251388D01*
X136429942Y-102251390D01*
X137170590Y-102992037D01*
X137107007Y-103009075D01*
X136992993Y-103074901D01*
X136899901Y-103167993D01*
X136834075Y-103282007D01*
X136817037Y-103345589D01*
X136076564Y-102605116D01*
X135976267Y-102758632D01*
X135876412Y-102986282D01*
X135815387Y-103227261D01*
X135815385Y-103227270D01*
X135794859Y-103474994D01*
X135794859Y-103475005D01*
X130548492Y-103475005D01*
X130594335Y-103459814D01*
X130743656Y-103367712D01*
X130867712Y-103243656D01*
X130959814Y-103094335D01*
X131014999Y-102927798D01*
X131025500Y-102825010D01*
X131025500Y-100674990D01*
X131014999Y-100572202D01*
X130959814Y-100405665D01*
X130867712Y-100256344D01*
X130743656Y-100132288D01*
X130594335Y-100040186D01*
X130427798Y-99985001D01*
X130427796Y-99985000D01*
X130325017Y-99974500D01*
X130325010Y-99974500D01*
X128174990Y-99974500D01*
X128174982Y-99974500D01*
X128072203Y-99985000D01*
X128072202Y-99985001D01*
X127996410Y-100010116D01*
X127905667Y-100040185D01*
X127905662Y-100040187D01*
X127756342Y-100132289D01*
X127632289Y-100256342D01*
X127540187Y-100405662D01*
X127540186Y-100405665D01*
X127485001Y-100572202D01*
X127485001Y-100572203D01*
X127485000Y-100572203D01*
X127474500Y-100674982D01*
X127474500Y-102825017D01*
X127000500Y-102825017D01*
X127000500Y-98320002D01*
X150522677Y-98320002D01*
X150541929Y-98540062D01*
X150541930Y-98540070D01*
X150599104Y-98753445D01*
X150599105Y-98753447D01*
X150599106Y-98753450D01*
X150692466Y-98953662D01*
X150692468Y-98953666D01*
X150819170Y-99134615D01*
X150819175Y-99134621D01*
X150975378Y-99290824D01*
X150975384Y-99290829D01*
X151035477Y-99332906D01*
X151079102Y-99387482D01*
X151086296Y-99456980D01*
X151054774Y-99519335D01*
X150994544Y-99554750D01*
X150977609Y-99557771D01*
X150920516Y-99563909D01*
X150785671Y-99614202D01*
X150785664Y-99614206D01*
X150670455Y-99700452D01*
X150670452Y-99700455D01*
X150584206Y-99815664D01*
X150584202Y-99815671D01*
X150533908Y-99950517D01*
X150530201Y-99985001D01*
X150527501Y-100010123D01*
X150527500Y-100010135D01*
X150527500Y-101629870D01*
X150527501Y-101629876D01*
X150533908Y-101689483D01*
X150584202Y-101824328D01*
X150584206Y-101824335D01*
X150670452Y-101939544D01*
X150670455Y-101939547D01*
X150785664Y-102025793D01*
X150785671Y-102025797D01*
X150920517Y-102076091D01*
X150920516Y-102076091D01*
X150927444Y-102076835D01*
X150980127Y-102082500D01*
X152599872Y-102082499D01*
X152659483Y-102076091D01*
X152794331Y-102025796D01*
X152909546Y-101939546D01*
X152995796Y-101824331D01*
X153046091Y-101689483D01*
X153052500Y-101629873D01*
X153052499Y-100010128D01*
X153046091Y-99950517D01*
X152995796Y-99815669D01*
X152995795Y-99815668D01*
X152995793Y-99815664D01*
X152909547Y-99700455D01*
X152909544Y-99700452D01*
X152794335Y-99614206D01*
X152794328Y-99614202D01*
X152659482Y-99563908D01*
X152659483Y-99563908D01*
X152602390Y-99557770D01*
X152537839Y-99531032D01*
X152497991Y-99473639D01*
X152495498Y-99403814D01*
X152531151Y-99343725D01*
X152544523Y-99332906D01*
X152604620Y-99290826D01*
X152760826Y-99134620D01*
X152887534Y-98953662D01*
X152980894Y-98753450D01*
X153038070Y-98540068D01*
X153057323Y-98320000D01*
X153038070Y-98099932D01*
X152980894Y-97886550D01*
X152887534Y-97686339D01*
X152760826Y-97505380D01*
X152760824Y-97505377D01*
X152663127Y-97407680D01*
X152629642Y-97346357D01*
X152634626Y-97276665D01*
X152663123Y-97232322D01*
X152760826Y-97134620D01*
X152887534Y-96953662D01*
X152980894Y-96753450D01*
X153038070Y-96540068D01*
X153057323Y-96320000D01*
X153038070Y-96099932D01*
X152980894Y-95886550D01*
X152887534Y-95686339D01*
X152760826Y-95505380D01*
X152604620Y-95349174D01*
X152604616Y-95349171D01*
X152604615Y-95349170D01*
X152423666Y-95222468D01*
X152423663Y-95222466D01*
X152423662Y-95222466D01*
X152375691Y-95200096D01*
X152337108Y-95182105D01*
X152284669Y-95135932D01*
X152265517Y-95068739D01*
X152285733Y-95001858D01*
X152337110Y-94957340D01*
X152423412Y-94917097D01*
X152423417Y-94917094D01*
X152488188Y-94871741D01*
X151886750Y-94270302D01*
X151967553Y-94248651D01*
X152072446Y-94188091D01*
X152158091Y-94102446D01*
X152218651Y-93997553D01*
X152240302Y-93916749D01*
X152841741Y-94518188D01*
X152887094Y-94453417D01*
X152887100Y-94453407D01*
X152980419Y-94253284D01*
X152980424Y-94253270D01*
X153037573Y-94039986D01*
X153037575Y-94039976D01*
X153056821Y-93820000D01*
X153056821Y-93819999D01*
X153037575Y-93600023D01*
X153037573Y-93600013D01*
X152980424Y-93386729D01*
X152980420Y-93386720D01*
X152887096Y-93186586D01*
X152841741Y-93121811D01*
X152841740Y-93121810D01*
X152240302Y-93723249D01*
X152218651Y-93642447D01*
X152158091Y-93537554D01*
X152072446Y-93451909D01*
X151967553Y-93391349D01*
X151886750Y-93369697D01*
X152488188Y-92768259D01*
X152488187Y-92768258D01*
X152423411Y-92722901D01*
X152423405Y-92722898D01*
X152223284Y-92629580D01*
X152223270Y-92629575D01*
X152009986Y-92572426D01*
X152009976Y-92572424D01*
X151790001Y-92553179D01*
X151789999Y-92553179D01*
X151570023Y-92572424D01*
X151570013Y-92572426D01*
X151356729Y-92629575D01*
X151356720Y-92629579D01*
X151156590Y-92722901D01*
X151091811Y-92768258D01*
X151693250Y-93369697D01*
X151612447Y-93391349D01*
X151507554Y-93451909D01*
X151421909Y-93537554D01*
X151361349Y-93642447D01*
X151339697Y-93723250D01*
X150738258Y-93121811D01*
X150692901Y-93186590D01*
X150599579Y-93386720D01*
X150599575Y-93386729D01*
X150542426Y-93600013D01*
X150542424Y-93600023D01*
X150523179Y-93819999D01*
X150523179Y-93820000D01*
X150542424Y-94039976D01*
X150542426Y-94039986D01*
X150599575Y-94253270D01*
X150599580Y-94253284D01*
X150692898Y-94453405D01*
X150692901Y-94453411D01*
X150738258Y-94518187D01*
X150738259Y-94518188D01*
X151339697Y-93916749D01*
X151361349Y-93997553D01*
X151421909Y-94102446D01*
X151507554Y-94188091D01*
X151612447Y-94248651D01*
X151693249Y-94270302D01*
X151091810Y-94871740D01*
X151156589Y-94917098D01*
X151242891Y-94957342D01*
X151295330Y-95003514D01*
X151314482Y-95070708D01*
X151294266Y-95137589D01*
X151242891Y-95182106D01*
X151156340Y-95222465D01*
X151156338Y-95222466D01*
X150975377Y-95349175D01*
X150819175Y-95505377D01*
X150692466Y-95686338D01*
X150692465Y-95686340D01*
X150599107Y-95886548D01*
X150599104Y-95886554D01*
X150541930Y-96099929D01*
X150541929Y-96099937D01*
X150522677Y-96319997D01*
X150522677Y-96320002D01*
X150541929Y-96540062D01*
X150541930Y-96540070D01*
X150599104Y-96753445D01*
X150599105Y-96753447D01*
X150599106Y-96753450D01*
X150692466Y-96953662D01*
X150692468Y-96953666D01*
X150819170Y-97134615D01*
X150819175Y-97134621D01*
X150916872Y-97232318D01*
X150950357Y-97293641D01*
X150945373Y-97363333D01*
X150916873Y-97407680D01*
X150819172Y-97505381D01*
X150692466Y-97686338D01*
X150692465Y-97686340D01*
X150599107Y-97886548D01*
X150599104Y-97886554D01*
X150541930Y-98099929D01*
X150541929Y-98099937D01*
X150522677Y-98319997D01*
X150522677Y-98320002D01*
X127000500Y-98320002D01*
X127000500Y-95575017D01*
X127474500Y-95575017D01*
X127485000Y-95677796D01*
X127540185Y-95844332D01*
X127540186Y-95844335D01*
X127632288Y-95993656D01*
X127756344Y-96117712D01*
X127905665Y-96209814D01*
X128072202Y-96264999D01*
X128174990Y-96275500D01*
X128174995Y-96275500D01*
X130325005Y-96275500D01*
X130325010Y-96275500D01*
X130427798Y-96264999D01*
X130594335Y-96209814D01*
X130743656Y-96117712D01*
X130867712Y-95993656D01*
X130959814Y-95844335D01*
X131014999Y-95677798D01*
X131025500Y-95575010D01*
X131025500Y-93424990D01*
X131014999Y-93322202D01*
X130959814Y-93155665D01*
X130867712Y-93006344D01*
X130743656Y-92882288D01*
X130594335Y-92790186D01*
X130427798Y-92735001D01*
X130427796Y-92735000D01*
X130325017Y-92724500D01*
X130325010Y-92724500D01*
X128174990Y-92724500D01*
X128174982Y-92724500D01*
X128072203Y-92735000D01*
X128072202Y-92735001D01*
X127989669Y-92762349D01*
X127905667Y-92790185D01*
X127905662Y-92790187D01*
X127756342Y-92882289D01*
X127632289Y-93006342D01*
X127540187Y-93155662D01*
X127540186Y-93155665D01*
X127485001Y-93322202D01*
X127485001Y-93322203D01*
X127485000Y-93322203D01*
X127474500Y-93424982D01*
X127474500Y-95575017D01*
X127000500Y-95575017D01*
X127000500Y-92330005D01*
X133414357Y-92330005D01*
X133434890Y-92577812D01*
X133434892Y-92577824D01*
X133495936Y-92818881D01*
X133595826Y-93046606D01*
X133731833Y-93254782D01*
X133731836Y-93254785D01*
X133900256Y-93437738D01*
X134096491Y-93590474D01*
X134315190Y-93708828D01*
X134550386Y-93789571D01*
X134795665Y-93830500D01*
X135044335Y-93830500D01*
X135289614Y-93789571D01*
X135524810Y-93708828D01*
X135743509Y-93590474D01*
X135939744Y-93437738D01*
X135994856Y-93377870D01*
X138499500Y-93377870D01*
X138499501Y-93377876D01*
X138505908Y-93437483D01*
X138556202Y-93572328D01*
X138556206Y-93572335D01*
X138642452Y-93687544D01*
X138642455Y-93687547D01*
X138757664Y-93773793D01*
X138757671Y-93773797D01*
X138892517Y-93824091D01*
X138892516Y-93824091D01*
X138899444Y-93824835D01*
X138952127Y-93830500D01*
X141047872Y-93830499D01*
X141107483Y-93824091D01*
X141242331Y-93773796D01*
X141357546Y-93687546D01*
X141443796Y-93572331D01*
X141494091Y-93437483D01*
X141500500Y-93377873D01*
X141500499Y-91282128D01*
X141494091Y-91222517D01*
X141443796Y-91087669D01*
X141443795Y-91087668D01*
X141443793Y-91087664D01*
X141357547Y-90972455D01*
X141357544Y-90972452D01*
X141242335Y-90886206D01*
X141242328Y-90886202D01*
X141107482Y-90835908D01*
X141107483Y-90835908D01*
X141047883Y-90829501D01*
X141047881Y-90829500D01*
X141047873Y-90829500D01*
X141047864Y-90829500D01*
X138952129Y-90829500D01*
X138952123Y-90829501D01*
X138892516Y-90835908D01*
X138757671Y-90886202D01*
X138757664Y-90886206D01*
X138642455Y-90972452D01*
X138642452Y-90972455D01*
X138556206Y-91087664D01*
X138556202Y-91087671D01*
X138505908Y-91222517D01*
X138499501Y-91282116D01*
X138499501Y-91282123D01*
X138499500Y-91282135D01*
X138499500Y-93377870D01*
X135994856Y-93377870D01*
X136108164Y-93254785D01*
X136244173Y-93046607D01*
X136344063Y-92818881D01*
X136405108Y-92577821D01*
X136408302Y-92539273D01*
X136425643Y-92330005D01*
X136425643Y-92329994D01*
X136405109Y-92082187D01*
X136405107Y-92082175D01*
X136344063Y-91841118D01*
X136244173Y-91613393D01*
X136108166Y-91405217D01*
X136042350Y-91333722D01*
X135939744Y-91222262D01*
X135743509Y-91069526D01*
X135743507Y-91069525D01*
X135743506Y-91069524D01*
X135524811Y-90951172D01*
X135524802Y-90951169D01*
X135289616Y-90870429D01*
X135044335Y-90829500D01*
X134795665Y-90829500D01*
X134550383Y-90870429D01*
X134315197Y-90951169D01*
X134315188Y-90951172D01*
X134096493Y-91069524D01*
X133900257Y-91222261D01*
X133731833Y-91405217D01*
X133595826Y-91613393D01*
X133495936Y-91841118D01*
X133434892Y-92082175D01*
X133434890Y-92082187D01*
X133414357Y-92329994D01*
X133414357Y-92330005D01*
X127000500Y-92330005D01*
X127000500Y-91575017D01*
X127474500Y-91575017D01*
X127485000Y-91677796D01*
X127485001Y-91677798D01*
X127540186Y-91844335D01*
X127632288Y-91993656D01*
X127756344Y-92117712D01*
X127905665Y-92209814D01*
X128072202Y-92264999D01*
X128174990Y-92275500D01*
X128174995Y-92275500D01*
X130325005Y-92275500D01*
X130325010Y-92275500D01*
X130427798Y-92264999D01*
X130594335Y-92209814D01*
X130743656Y-92117712D01*
X130867712Y-91993656D01*
X130959814Y-91844335D01*
X131014999Y-91677798D01*
X131025500Y-91575010D01*
X131025500Y-90205115D01*
X143945034Y-90205115D01*
X143964858Y-90431712D01*
X143964860Y-90431723D01*
X144023730Y-90651430D01*
X144023735Y-90651444D01*
X144119863Y-90857591D01*
X144170974Y-90930585D01*
X144850000Y-90251559D01*
X144850000Y-90257774D01*
X144877259Y-90359507D01*
X144929920Y-90450719D01*
X145004394Y-90525193D01*
X145095606Y-90577854D01*
X145197339Y-90605113D01*
X145203553Y-90605113D01*
X144519352Y-91289312D01*
X144509506Y-91338307D01*
X144460890Y-91388490D01*
X144405367Y-91403162D01*
X144405423Y-91404212D01*
X144405429Y-91404259D01*
X144405426Y-91404259D01*
X144405436Y-91404437D01*
X144402123Y-91404614D01*
X144342516Y-91411021D01*
X144207671Y-91461315D01*
X144207664Y-91461319D01*
X144092455Y-91547565D01*
X144092452Y-91547568D01*
X144006206Y-91662777D01*
X144006202Y-91662784D01*
X143955908Y-91797630D01*
X143950887Y-91844335D01*
X143949501Y-91857236D01*
X143949500Y-91857248D01*
X143949500Y-93552983D01*
X143949501Y-93552989D01*
X143955908Y-93612596D01*
X144006202Y-93747441D01*
X144006206Y-93747448D01*
X144092452Y-93862657D01*
X144092455Y-93862660D01*
X144207664Y-93948906D01*
X144207671Y-93948910D01*
X144342517Y-93999204D01*
X144342516Y-93999204D01*
X144349444Y-93999948D01*
X144402127Y-94005613D01*
X146097872Y-94005612D01*
X146157483Y-93999204D01*
X146292331Y-93948909D01*
X146407546Y-93862659D01*
X146493796Y-93747444D01*
X146544091Y-93612596D01*
X146550500Y-93552986D01*
X146550499Y-91857241D01*
X146544091Y-91797630D01*
X146493796Y-91662782D01*
X146493795Y-91662781D01*
X146493793Y-91662777D01*
X146407547Y-91547568D01*
X146407544Y-91547565D01*
X146292335Y-91461319D01*
X146292328Y-91461315D01*
X146157482Y-91411021D01*
X146157483Y-91411021D01*
X146097883Y-91404614D01*
X146097881Y-91404613D01*
X146097873Y-91404613D01*
X146097864Y-91404613D01*
X146094548Y-91404435D01*
X146094627Y-91402960D01*
X146033215Y-91384928D01*
X145987460Y-91332124D01*
X145979969Y-91288635D01*
X145296447Y-90605113D01*
X145302661Y-90605113D01*
X145404394Y-90577854D01*
X145495606Y-90525193D01*
X145570080Y-90450719D01*
X145622741Y-90359507D01*
X145650000Y-90257774D01*
X145650000Y-90251560D01*
X146329024Y-90930584D01*
X146380136Y-90857591D01*
X146430303Y-90750007D01*
X152244671Y-90750007D01*
X152263964Y-91044363D01*
X152263965Y-91044373D01*
X152263966Y-91044380D01*
X152312685Y-91289312D01*
X152321518Y-91333716D01*
X152321521Y-91333730D01*
X152416349Y-91613080D01*
X152546825Y-91877660D01*
X152546829Y-91877667D01*
X152710725Y-92122955D01*
X152905241Y-92344758D01*
X153127044Y-92539274D01*
X153262189Y-92629575D01*
X153372335Y-92703172D01*
X153636923Y-92833652D01*
X153916278Y-92928481D01*
X154205620Y-92986034D01*
X154233888Y-92987886D01*
X154499993Y-93005329D01*
X154500000Y-93005329D01*
X154500007Y-93005329D01*
X154735675Y-92989881D01*
X154794380Y-92986034D01*
X155083722Y-92928481D01*
X155363077Y-92833652D01*
X155627665Y-92703172D01*
X155872957Y-92539273D01*
X156094758Y-92344758D01*
X156289273Y-92122957D01*
X156453172Y-91877665D01*
X156583652Y-91613077D01*
X156678481Y-91333722D01*
X156736034Y-91044380D01*
X156740748Y-90972454D01*
X156755329Y-90750007D01*
X156755329Y-90749992D01*
X156736035Y-90455636D01*
X156736034Y-90455620D01*
X156678481Y-90166278D01*
X156583652Y-89886923D01*
X156453172Y-89622336D01*
X156289273Y-89377043D01*
X156241179Y-89322202D01*
X156094758Y-89155241D01*
X155872955Y-88960725D01*
X155627667Y-88796829D01*
X155627660Y-88796825D01*
X155363080Y-88666349D01*
X155083730Y-88571521D01*
X155083724Y-88571519D01*
X155083722Y-88571519D01*
X154794380Y-88513966D01*
X154794373Y-88513965D01*
X154794363Y-88513964D01*
X154500007Y-88494671D01*
X154499993Y-88494671D01*
X154205636Y-88513964D01*
X154205624Y-88513965D01*
X154205620Y-88513966D01*
X154205612Y-88513967D01*
X154205609Y-88513968D01*
X153916283Y-88571518D01*
X153916269Y-88571521D01*
X153636919Y-88666349D01*
X153372334Y-88796828D01*
X153127041Y-88960728D01*
X152905241Y-89155241D01*
X152710728Y-89377041D01*
X152546828Y-89622334D01*
X152416349Y-89886919D01*
X152321521Y-90166269D01*
X152321518Y-90166283D01*
X152263968Y-90455609D01*
X152263964Y-90455636D01*
X152244671Y-90749992D01*
X152244671Y-90750007D01*
X146430303Y-90750007D01*
X146476264Y-90651444D01*
X146476269Y-90651430D01*
X146535139Y-90431723D01*
X146535141Y-90431712D01*
X146554966Y-90205115D01*
X146554966Y-90205110D01*
X146535141Y-89978513D01*
X146535139Y-89978502D01*
X146476269Y-89758795D01*
X146476264Y-89758781D01*
X146380136Y-89552634D01*
X146380132Y-89552626D01*
X146329025Y-89479639D01*
X145650000Y-90158664D01*
X145650000Y-90152452D01*
X145622741Y-90050719D01*
X145570080Y-89959507D01*
X145495606Y-89885033D01*
X145404394Y-89832372D01*
X145302661Y-89805113D01*
X145296448Y-89805113D01*
X145975472Y-89126087D01*
X145902478Y-89074976D01*
X145696331Y-88978848D01*
X145696317Y-88978843D01*
X145476610Y-88919973D01*
X145476599Y-88919971D01*
X145250002Y-88900147D01*
X145249998Y-88900147D01*
X145023400Y-88919971D01*
X145023389Y-88919973D01*
X144803682Y-88978843D01*
X144803673Y-88978847D01*
X144597516Y-89074979D01*
X144597512Y-89074981D01*
X144524526Y-89126086D01*
X144524526Y-89126087D01*
X145203553Y-89805113D01*
X145197339Y-89805113D01*
X145095606Y-89832372D01*
X145004394Y-89885033D01*
X144929920Y-89959507D01*
X144877259Y-90050719D01*
X144850000Y-90152452D01*
X144850000Y-90158665D01*
X144170974Y-89479639D01*
X144170973Y-89479639D01*
X144119868Y-89552625D01*
X144119866Y-89552629D01*
X144023734Y-89758786D01*
X144023730Y-89758795D01*
X143964860Y-89978502D01*
X143964858Y-89978513D01*
X143945034Y-90205110D01*
X143945034Y-90205115D01*
X131025500Y-90205115D01*
X131025500Y-89424990D01*
X131014999Y-89322202D01*
X130959814Y-89155665D01*
X130867712Y-89006344D01*
X130743656Y-88882288D01*
X130605105Y-88796829D01*
X130594337Y-88790187D01*
X130594332Y-88790185D01*
X130592863Y-88789698D01*
X130427798Y-88735001D01*
X130427796Y-88735000D01*
X130325017Y-88724500D01*
X130325010Y-88724500D01*
X128174990Y-88724500D01*
X128174982Y-88724500D01*
X128072203Y-88735000D01*
X128072202Y-88735001D01*
X127989669Y-88762349D01*
X127905667Y-88790185D01*
X127905662Y-88790187D01*
X127756342Y-88882289D01*
X127632289Y-89006342D01*
X127540187Y-89155662D01*
X127540186Y-89155665D01*
X127485001Y-89322202D01*
X127485001Y-89322203D01*
X127485000Y-89322203D01*
X127474500Y-89424982D01*
X127474500Y-91575017D01*
X127000500Y-91575017D01*
X127000500Y-87500000D01*
X133435960Y-87500000D01*
X133496411Y-87738716D01*
X133596267Y-87966367D01*
X133732232Y-88174478D01*
X133900592Y-88357364D01*
X133900602Y-88357373D01*
X134096762Y-88510051D01*
X134096771Y-88510057D01*
X134315385Y-88628364D01*
X134315396Y-88628369D01*
X134550507Y-88709083D01*
X134669999Y-88729023D01*
X134670000Y-88729022D01*
X134670000Y-87683012D01*
X134727007Y-87715925D01*
X134854174Y-87750000D01*
X134985826Y-87750000D01*
X135112993Y-87715925D01*
X135170000Y-87683012D01*
X135170000Y-88729023D01*
X135289492Y-88709083D01*
X135524603Y-88628369D01*
X135524614Y-88628364D01*
X135743228Y-88510057D01*
X135743237Y-88510051D01*
X135939397Y-88357373D01*
X135939407Y-88357364D01*
X136107767Y-88174478D01*
X136243732Y-87966367D01*
X136343588Y-87738716D01*
X136404040Y-87500000D01*
X135353012Y-87500000D01*
X135385925Y-87442993D01*
X135420000Y-87315826D01*
X135420000Y-87250005D01*
X138494357Y-87250005D01*
X138514890Y-87497812D01*
X138514892Y-87497824D01*
X138575936Y-87738881D01*
X138675826Y-87966606D01*
X138811833Y-88174782D01*
X138811836Y-88174785D01*
X138980256Y-88357738D01*
X139176491Y-88510474D01*
X139176493Y-88510475D01*
X139394332Y-88628364D01*
X139395190Y-88628828D01*
X139504482Y-88666348D01*
X139628964Y-88709083D01*
X139630386Y-88709571D01*
X139875665Y-88750500D01*
X140124335Y-88750500D01*
X140369614Y-88709571D01*
X140604810Y-88628828D01*
X140823509Y-88510474D01*
X141019744Y-88357738D01*
X141188164Y-88174785D01*
X141324173Y-87966607D01*
X141424063Y-87738881D01*
X141485108Y-87497821D01*
X141489651Y-87442993D01*
X141495420Y-87373370D01*
X147594000Y-87373370D01*
X147594001Y-87373376D01*
X147600408Y-87432983D01*
X147650702Y-87567828D01*
X147650706Y-87567835D01*
X147736952Y-87683044D01*
X147736955Y-87683047D01*
X147852164Y-87769293D01*
X147852171Y-87769297D01*
X147987017Y-87819591D01*
X147987016Y-87819591D01*
X147993944Y-87820335D01*
X148046627Y-87826000D01*
X149793372Y-87825999D01*
X149852983Y-87819591D01*
X149987831Y-87769296D01*
X150103046Y-87683046D01*
X150189296Y-87567831D01*
X150239591Y-87432983D01*
X150246000Y-87373373D01*
X150245999Y-87368908D01*
X150265675Y-87301870D01*
X150318473Y-87256108D01*
X150356972Y-87249474D01*
X150918657Y-86687789D01*
X150927447Y-86720591D01*
X151002687Y-86850909D01*
X151109091Y-86957313D01*
X151239409Y-87032553D01*
X151272210Y-87041342D01*
X150716218Y-87597333D01*
X150794718Y-87652301D01*
X151004919Y-87750318D01*
X151004925Y-87750321D01*
X151228948Y-87810348D01*
X151228955Y-87810349D01*
X151459998Y-87830563D01*
X151460002Y-87830563D01*
X151691044Y-87810349D01*
X151691051Y-87810348D01*
X151915074Y-87750321D01*
X151915085Y-87750317D01*
X152125279Y-87652302D01*
X152125283Y-87652300D01*
X152203780Y-87597333D01*
X151647789Y-87041342D01*
X151680591Y-87032553D01*
X151810909Y-86957313D01*
X151917313Y-86850909D01*
X151992553Y-86720591D01*
X152001342Y-86687789D01*
X152557333Y-87243780D01*
X152612300Y-87165283D01*
X152612301Y-87165280D01*
X152617341Y-87154474D01*
X152663512Y-87102033D01*
X152730705Y-87082880D01*
X152797587Y-87103094D01*
X152842106Y-87154471D01*
X152847263Y-87165532D01*
X152873880Y-87203544D01*
X152980345Y-87355592D01*
X153144408Y-87519655D01*
X153334467Y-87652736D01*
X153544749Y-87750792D01*
X153768863Y-87810843D01*
X153942096Y-87825999D01*
X153999999Y-87831065D01*
X154000000Y-87831065D01*
X154000001Y-87831065D01*
X154038522Y-87827694D01*
X154231137Y-87810843D01*
X154455251Y-87750792D01*
X154665533Y-87652736D01*
X154855592Y-87519655D01*
X155019655Y-87355592D01*
X155152736Y-87165533D01*
X155250792Y-86955251D01*
X155310843Y-86731137D01*
X155331065Y-86500000D01*
X155310843Y-86268863D01*
X155250792Y-86044749D01*
X155152736Y-85834468D01*
X155152734Y-85834465D01*
X155152733Y-85834463D01*
X155093596Y-85750006D01*
X158244357Y-85750006D01*
X158264890Y-85997813D01*
X158264892Y-85997825D01*
X158325936Y-86238882D01*
X158425826Y-86466607D01*
X158561833Y-86674783D01*
X158561836Y-86674786D01*
X158730256Y-86857739D01*
X158926491Y-87010475D01*
X159145190Y-87128829D01*
X159380386Y-87209572D01*
X159625665Y-87250501D01*
X159874335Y-87250501D01*
X160119614Y-87209572D01*
X160354810Y-87128829D01*
X160573509Y-87010475D01*
X160769744Y-86857739D01*
X160938164Y-86674786D01*
X161074173Y-86466608D01*
X161174063Y-86238882D01*
X161235108Y-85997822D01*
X161235109Y-85997813D01*
X161255643Y-85750006D01*
X161255643Y-85749995D01*
X161235109Y-85502188D01*
X161235107Y-85502176D01*
X161174063Y-85261119D01*
X161074173Y-85033394D01*
X160938166Y-84825218D01*
X160916557Y-84801745D01*
X160769744Y-84642263D01*
X160573509Y-84489527D01*
X160573507Y-84489526D01*
X160573506Y-84489525D01*
X160354811Y-84371173D01*
X160354802Y-84371170D01*
X160119616Y-84290430D01*
X159874335Y-84249501D01*
X159625665Y-84249501D01*
X159380383Y-84290430D01*
X159145197Y-84371170D01*
X159145188Y-84371173D01*
X158926493Y-84489525D01*
X158730257Y-84642262D01*
X158561833Y-84825218D01*
X158425826Y-85033394D01*
X158325936Y-85261119D01*
X158264892Y-85502176D01*
X158264890Y-85502188D01*
X158244357Y-85749995D01*
X158244357Y-85750006D01*
X155093596Y-85750006D01*
X155019654Y-85644406D01*
X154855596Y-85480349D01*
X154855592Y-85480345D01*
X154701579Y-85372504D01*
X154665532Y-85347263D01*
X154480796Y-85261120D01*
X154455251Y-85249208D01*
X154455247Y-85249207D01*
X154455243Y-85249205D01*
X154231142Y-85189158D01*
X154231132Y-85189156D01*
X154000001Y-85168935D01*
X153999999Y-85168935D01*
X153768867Y-85189156D01*
X153768857Y-85189158D01*
X153544756Y-85249205D01*
X153544747Y-85249209D01*
X153334467Y-85347264D01*
X153334463Y-85347266D01*
X153144406Y-85480345D01*
X152980345Y-85644406D01*
X152847266Y-85834463D01*
X152847260Y-85834474D01*
X152842101Y-85845537D01*
X152795925Y-85897973D01*
X152728730Y-85917120D01*
X152661850Y-85896899D01*
X152617339Y-85845526D01*
X152612298Y-85834716D01*
X152557333Y-85756217D01*
X152001341Y-86312209D01*
X151992553Y-86279409D01*
X151917313Y-86149091D01*
X151810909Y-86042687D01*
X151680591Y-85967447D01*
X151647789Y-85958657D01*
X152203781Y-85402665D01*
X152125281Y-85347699D01*
X151915080Y-85249681D01*
X151915074Y-85249678D01*
X151691051Y-85189651D01*
X151691044Y-85189650D01*
X151460002Y-85169437D01*
X151459998Y-85169437D01*
X151228955Y-85189650D01*
X151228948Y-85189651D01*
X151004917Y-85249681D01*
X150794715Y-85347701D01*
X150716218Y-85402664D01*
X150716217Y-85402665D01*
X151272210Y-85958657D01*
X151239409Y-85967447D01*
X151109091Y-86042687D01*
X151002687Y-86149091D01*
X150927447Y-86279409D01*
X150918657Y-86312209D01*
X150356116Y-85749668D01*
X150312305Y-85740863D01*
X150262123Y-85692247D01*
X150245999Y-85631102D01*
X150245999Y-85626629D01*
X150245998Y-85626623D01*
X150245997Y-85626616D01*
X150239591Y-85567017D01*
X150215411Y-85502188D01*
X150189297Y-85432171D01*
X150189293Y-85432164D01*
X150103047Y-85316955D01*
X150103044Y-85316952D01*
X149987835Y-85230706D01*
X149987828Y-85230702D01*
X149852982Y-85180408D01*
X149852983Y-85180408D01*
X149793383Y-85174001D01*
X149793381Y-85174000D01*
X149793373Y-85174000D01*
X149793364Y-85174000D01*
X148046629Y-85174000D01*
X148046623Y-85174001D01*
X147987016Y-85180408D01*
X147852171Y-85230702D01*
X147852164Y-85230706D01*
X147736955Y-85316952D01*
X147736952Y-85316955D01*
X147650706Y-85432164D01*
X147650702Y-85432171D01*
X147600408Y-85567017D01*
X147594001Y-85626616D01*
X147594001Y-85626623D01*
X147594000Y-85626635D01*
X147594000Y-87373370D01*
X141495420Y-87373370D01*
X141505643Y-87250005D01*
X141505643Y-87249994D01*
X141485109Y-87002187D01*
X141485107Y-87002175D01*
X141424063Y-86761118D01*
X141324173Y-86533393D01*
X141188166Y-86325217D01*
X141166557Y-86301744D01*
X141019744Y-86142262D01*
X140823509Y-85989526D01*
X140823507Y-85989525D01*
X140823506Y-85989524D01*
X140604811Y-85871172D01*
X140604802Y-85871169D01*
X140369616Y-85790429D01*
X140124335Y-85749500D01*
X139875665Y-85749500D01*
X139630383Y-85790429D01*
X139395197Y-85871169D01*
X139395188Y-85871172D01*
X139176493Y-85989524D01*
X138980257Y-86142261D01*
X138811833Y-86325217D01*
X138675826Y-86533393D01*
X138575936Y-86761118D01*
X138514892Y-87002175D01*
X138514890Y-87002187D01*
X138494357Y-87249994D01*
X138494357Y-87250005D01*
X135420000Y-87250005D01*
X135420000Y-87184174D01*
X135385925Y-87057007D01*
X135353012Y-87000000D01*
X136404040Y-87000000D01*
X136343588Y-86761283D01*
X136243732Y-86533632D01*
X136107767Y-86325521D01*
X135939407Y-86142635D01*
X135939397Y-86142626D01*
X135743237Y-85989948D01*
X135743228Y-85989942D01*
X135524614Y-85871635D01*
X135524603Y-85871630D01*
X135289492Y-85790916D01*
X135170000Y-85770976D01*
X135170000Y-86816988D01*
X135112993Y-86784075D01*
X134985826Y-86750000D01*
X134854174Y-86750000D01*
X134727007Y-86784075D01*
X134670000Y-86816988D01*
X134670000Y-85770976D01*
X134669999Y-85770976D01*
X134550507Y-85790916D01*
X134315396Y-85871630D01*
X134315385Y-85871635D01*
X134096771Y-85989942D01*
X134096762Y-85989948D01*
X133900602Y-86142626D01*
X133900592Y-86142635D01*
X133732232Y-86325521D01*
X133596267Y-86533632D01*
X133496411Y-86761283D01*
X133435960Y-87000000D01*
X134486988Y-87000000D01*
X134454075Y-87057007D01*
X134420000Y-87184174D01*
X134420000Y-87315826D01*
X134454075Y-87442993D01*
X134486988Y-87500000D01*
X133435960Y-87500000D01*
X127000500Y-87500000D01*
X127000500Y-85750006D01*
X127994357Y-85750006D01*
X128014890Y-85997813D01*
X128014892Y-85997825D01*
X128075936Y-86238882D01*
X128175826Y-86466607D01*
X128311833Y-86674783D01*
X128311836Y-86674786D01*
X128480256Y-86857739D01*
X128676491Y-87010475D01*
X128895190Y-87128829D01*
X129130386Y-87209572D01*
X129375665Y-87250501D01*
X129624335Y-87250501D01*
X129869614Y-87209572D01*
X130104810Y-87128829D01*
X130323509Y-87010475D01*
X130519744Y-86857739D01*
X130688164Y-86674786D01*
X130824173Y-86466608D01*
X130924063Y-86238882D01*
X130985108Y-85997822D01*
X130985109Y-85997813D01*
X131005643Y-85750006D01*
X131005643Y-85749995D01*
X130985109Y-85502188D01*
X130985107Y-85502176D01*
X130924063Y-85261119D01*
X130824173Y-85033394D01*
X130688166Y-84825218D01*
X130666557Y-84801745D01*
X130519744Y-84642263D01*
X130323509Y-84489527D01*
X130323507Y-84489526D01*
X130323506Y-84489525D01*
X130104811Y-84371173D01*
X130104802Y-84371170D01*
X129869616Y-84290430D01*
X129624335Y-84249501D01*
X129375665Y-84249501D01*
X129130383Y-84290430D01*
X128895197Y-84371170D01*
X128895188Y-84371173D01*
X128676493Y-84489525D01*
X128480257Y-84642262D01*
X128311833Y-84825218D01*
X128175826Y-85033394D01*
X128075936Y-85261119D01*
X128014892Y-85502176D01*
X128014890Y-85502188D01*
X127994357Y-85749995D01*
X127994357Y-85750006D01*
X127000500Y-85750006D01*
X127000500Y-83756960D01*
X127001280Y-83743078D01*
X127002840Y-83729224D01*
X127011459Y-83652730D01*
X127017632Y-83625677D01*
X127045356Y-83546449D01*
X127057397Y-83521448D01*
X127102046Y-83450389D01*
X127119353Y-83428689D01*
X127178690Y-83369351D01*
X127200389Y-83352046D01*
X127271450Y-83307396D01*
X127296456Y-83295353D01*
X127375669Y-83267635D01*
X127402732Y-83261459D01*
X127465330Y-83254406D01*
X127493070Y-83251281D01*
X127506953Y-83250501D01*
X127565892Y-83250501D01*
X161434108Y-83250501D01*
X161493040Y-83250501D01*
X161506922Y-83251281D01*
G37*
%TD.AperFunction*%
%TD*%
M02*
