%TF.GenerationSoftware,KiCad,Pcbnew,8.0.1*%
%TF.CreationDate,2025-01-11T03:08:54+01:00*%
%TF.ProjectId,Verteilerplatine,56657274-6569-46c6-9572-706c6174696e,rev?*%
%TF.SameCoordinates,Original*%
%TF.FileFunction,Legend,Bot*%
%TF.FilePolarity,Positive*%
%FSLAX46Y46*%
G04 Gerber Fmt 4.6, Leading zero omitted, Abs format (unit mm)*
G04 Created by KiCad (PCBNEW 8.0.1) date 2025-01-11 03:08:54*
%MOMM*%
%LPD*%
G01*
G04 APERTURE LIST*
%ADD10C,0.100000*%
%ADD11C,0.300000*%
G04 APERTURE END LIST*
D10*
X144112782Y-109938665D02*
X143969925Y-109986284D01*
X143969925Y-109986284D02*
X143922306Y-110033903D01*
X143922306Y-110033903D02*
X143874687Y-110129141D01*
X143874687Y-110129141D02*
X143874687Y-110271998D01*
X143874687Y-110271998D02*
X143922306Y-110367236D01*
X143922306Y-110367236D02*
X143969925Y-110414856D01*
X143969925Y-110414856D02*
X144065163Y-110462475D01*
X144065163Y-110462475D02*
X144446115Y-110462475D01*
X144446115Y-110462475D02*
X144446115Y-109462475D01*
X144446115Y-109462475D02*
X144112782Y-109462475D01*
X144112782Y-109462475D02*
X144017544Y-109510094D01*
X144017544Y-109510094D02*
X143969925Y-109557713D01*
X143969925Y-109557713D02*
X143922306Y-109652951D01*
X143922306Y-109652951D02*
X143922306Y-109748189D01*
X143922306Y-109748189D02*
X143969925Y-109843427D01*
X143969925Y-109843427D02*
X144017544Y-109891046D01*
X144017544Y-109891046D02*
X144112782Y-109938665D01*
X144112782Y-109938665D02*
X144446115Y-109938665D01*
X143065163Y-110414856D02*
X143160401Y-110462475D01*
X143160401Y-110462475D02*
X143350877Y-110462475D01*
X143350877Y-110462475D02*
X143446115Y-110414856D01*
X143446115Y-110414856D02*
X143493734Y-110319617D01*
X143493734Y-110319617D02*
X143493734Y-109938665D01*
X143493734Y-109938665D02*
X143446115Y-109843427D01*
X143446115Y-109843427D02*
X143350877Y-109795808D01*
X143350877Y-109795808D02*
X143160401Y-109795808D01*
X143160401Y-109795808D02*
X143065163Y-109843427D01*
X143065163Y-109843427D02*
X143017544Y-109938665D01*
X143017544Y-109938665D02*
X143017544Y-110033903D01*
X143017544Y-110033903D02*
X143493734Y-110129141D01*
X142588972Y-110462475D02*
X142588972Y-109795808D01*
X142588972Y-109986284D02*
X142541353Y-109891046D01*
X142541353Y-109891046D02*
X142493734Y-109843427D01*
X142493734Y-109843427D02*
X142398496Y-109795808D01*
X142398496Y-109795808D02*
X142303258Y-109795808D01*
X141827067Y-110462475D02*
X141922305Y-110414856D01*
X141922305Y-110414856D02*
X141969924Y-110319617D01*
X141969924Y-110319617D02*
X141969924Y-109462475D01*
X141446114Y-110462475D02*
X141446114Y-109795808D01*
X141446114Y-109462475D02*
X141493733Y-109510094D01*
X141493733Y-109510094D02*
X141446114Y-109557713D01*
X141446114Y-109557713D02*
X141398495Y-109510094D01*
X141398495Y-109510094D02*
X141446114Y-109462475D01*
X141446114Y-109462475D02*
X141446114Y-109557713D01*
X140969924Y-109795808D02*
X140969924Y-110462475D01*
X140969924Y-109891046D02*
X140922305Y-109843427D01*
X140922305Y-109843427D02*
X140827067Y-109795808D01*
X140827067Y-109795808D02*
X140684210Y-109795808D01*
X140684210Y-109795808D02*
X140588972Y-109843427D01*
X140588972Y-109843427D02*
X140541353Y-109938665D01*
X140541353Y-109938665D02*
X140541353Y-110462475D01*
X143922306Y-112072419D02*
X144493734Y-112072419D01*
X144208020Y-112072419D02*
X144208020Y-111072419D01*
X144208020Y-111072419D02*
X144303258Y-111215276D01*
X144303258Y-111215276D02*
X144398496Y-111310514D01*
X144398496Y-111310514D02*
X144493734Y-111358133D01*
X142969925Y-112072419D02*
X143541353Y-112072419D01*
X143255639Y-112072419D02*
X143255639Y-111072419D01*
X143255639Y-111072419D02*
X143350877Y-111215276D01*
X143350877Y-111215276D02*
X143446115Y-111310514D01*
X143446115Y-111310514D02*
X143541353Y-111358133D01*
X142541353Y-111977180D02*
X142493734Y-112024800D01*
X142493734Y-112024800D02*
X142541353Y-112072419D01*
X142541353Y-112072419D02*
X142588972Y-112024800D01*
X142588972Y-112024800D02*
X142541353Y-111977180D01*
X142541353Y-111977180D02*
X142541353Y-112072419D01*
X141017544Y-111072419D02*
X141017544Y-111786704D01*
X141017544Y-111786704D02*
X141065163Y-111929561D01*
X141065163Y-111929561D02*
X141160401Y-112024800D01*
X141160401Y-112024800D02*
X141303258Y-112072419D01*
X141303258Y-112072419D02*
X141398496Y-112072419D01*
X140112782Y-112072419D02*
X140112782Y-111548609D01*
X140112782Y-111548609D02*
X140160401Y-111453371D01*
X140160401Y-111453371D02*
X140255639Y-111405752D01*
X140255639Y-111405752D02*
X140446115Y-111405752D01*
X140446115Y-111405752D02*
X140541353Y-111453371D01*
X140112782Y-112024800D02*
X140208020Y-112072419D01*
X140208020Y-112072419D02*
X140446115Y-112072419D01*
X140446115Y-112072419D02*
X140541353Y-112024800D01*
X140541353Y-112024800D02*
X140588972Y-111929561D01*
X140588972Y-111929561D02*
X140588972Y-111834323D01*
X140588972Y-111834323D02*
X140541353Y-111739085D01*
X140541353Y-111739085D02*
X140446115Y-111691466D01*
X140446115Y-111691466D02*
X140208020Y-111691466D01*
X140208020Y-111691466D02*
X140112782Y-111643847D01*
X139636591Y-111405752D02*
X139636591Y-112072419D01*
X139636591Y-111500990D02*
X139588972Y-111453371D01*
X139588972Y-111453371D02*
X139493734Y-111405752D01*
X139493734Y-111405752D02*
X139350877Y-111405752D01*
X139350877Y-111405752D02*
X139255639Y-111453371D01*
X139255639Y-111453371D02*
X139208020Y-111548609D01*
X139208020Y-111548609D02*
X139208020Y-112072419D01*
X138303258Y-111405752D02*
X138303258Y-112072419D01*
X138731829Y-111405752D02*
X138731829Y-111929561D01*
X138731829Y-111929561D02*
X138684210Y-112024800D01*
X138684210Y-112024800D02*
X138588972Y-112072419D01*
X138588972Y-112072419D02*
X138446115Y-112072419D01*
X138446115Y-112072419D02*
X138350877Y-112024800D01*
X138350877Y-112024800D02*
X138303258Y-111977180D01*
X137398496Y-112072419D02*
X137398496Y-111548609D01*
X137398496Y-111548609D02*
X137446115Y-111453371D01*
X137446115Y-111453371D02*
X137541353Y-111405752D01*
X137541353Y-111405752D02*
X137731829Y-111405752D01*
X137731829Y-111405752D02*
X137827067Y-111453371D01*
X137398496Y-112024800D02*
X137493734Y-112072419D01*
X137493734Y-112072419D02*
X137731829Y-112072419D01*
X137731829Y-112072419D02*
X137827067Y-112024800D01*
X137827067Y-112024800D02*
X137874686Y-111929561D01*
X137874686Y-111929561D02*
X137874686Y-111834323D01*
X137874686Y-111834323D02*
X137827067Y-111739085D01*
X137827067Y-111739085D02*
X137731829Y-111691466D01*
X137731829Y-111691466D02*
X137493734Y-111691466D01*
X137493734Y-111691466D02*
X137398496Y-111643847D01*
X136922305Y-112072419D02*
X136922305Y-111405752D01*
X136922305Y-111596228D02*
X136874686Y-111500990D01*
X136874686Y-111500990D02*
X136827067Y-111453371D01*
X136827067Y-111453371D02*
X136731829Y-111405752D01*
X136731829Y-111405752D02*
X136636591Y-111405752D01*
X135588971Y-111167657D02*
X135541352Y-111120038D01*
X135541352Y-111120038D02*
X135446114Y-111072419D01*
X135446114Y-111072419D02*
X135208019Y-111072419D01*
X135208019Y-111072419D02*
X135112781Y-111120038D01*
X135112781Y-111120038D02*
X135065162Y-111167657D01*
X135065162Y-111167657D02*
X135017543Y-111262895D01*
X135017543Y-111262895D02*
X135017543Y-111358133D01*
X135017543Y-111358133D02*
X135065162Y-111500990D01*
X135065162Y-111500990D02*
X135636590Y-112072419D01*
X135636590Y-112072419D02*
X135017543Y-112072419D01*
X134398495Y-111072419D02*
X134303257Y-111072419D01*
X134303257Y-111072419D02*
X134208019Y-111120038D01*
X134208019Y-111120038D02*
X134160400Y-111167657D01*
X134160400Y-111167657D02*
X134112781Y-111262895D01*
X134112781Y-111262895D02*
X134065162Y-111453371D01*
X134065162Y-111453371D02*
X134065162Y-111691466D01*
X134065162Y-111691466D02*
X134112781Y-111881942D01*
X134112781Y-111881942D02*
X134160400Y-111977180D01*
X134160400Y-111977180D02*
X134208019Y-112024800D01*
X134208019Y-112024800D02*
X134303257Y-112072419D01*
X134303257Y-112072419D02*
X134398495Y-112072419D01*
X134398495Y-112072419D02*
X134493733Y-112024800D01*
X134493733Y-112024800D02*
X134541352Y-111977180D01*
X134541352Y-111977180D02*
X134588971Y-111881942D01*
X134588971Y-111881942D02*
X134636590Y-111691466D01*
X134636590Y-111691466D02*
X134636590Y-111453371D01*
X134636590Y-111453371D02*
X134588971Y-111262895D01*
X134588971Y-111262895D02*
X134541352Y-111167657D01*
X134541352Y-111167657D02*
X134493733Y-111120038D01*
X134493733Y-111120038D02*
X134398495Y-111072419D01*
X133684209Y-111167657D02*
X133636590Y-111120038D01*
X133636590Y-111120038D02*
X133541352Y-111072419D01*
X133541352Y-111072419D02*
X133303257Y-111072419D01*
X133303257Y-111072419D02*
X133208019Y-111120038D01*
X133208019Y-111120038D02*
X133160400Y-111167657D01*
X133160400Y-111167657D02*
X133112781Y-111262895D01*
X133112781Y-111262895D02*
X133112781Y-111358133D01*
X133112781Y-111358133D02*
X133160400Y-111500990D01*
X133160400Y-111500990D02*
X133731828Y-112072419D01*
X133731828Y-112072419D02*
X133112781Y-112072419D01*
X132208019Y-111072419D02*
X132684209Y-111072419D01*
X132684209Y-111072419D02*
X132731828Y-111548609D01*
X132731828Y-111548609D02*
X132684209Y-111500990D01*
X132684209Y-111500990D02*
X132588971Y-111453371D01*
X132588971Y-111453371D02*
X132350876Y-111453371D01*
X132350876Y-111453371D02*
X132255638Y-111500990D01*
X132255638Y-111500990D02*
X132208019Y-111548609D01*
X132208019Y-111548609D02*
X132160400Y-111643847D01*
X132160400Y-111643847D02*
X132160400Y-111881942D01*
X132160400Y-111881942D02*
X132208019Y-111977180D01*
X132208019Y-111977180D02*
X132255638Y-112024800D01*
X132255638Y-112024800D02*
X132350876Y-112072419D01*
X132350876Y-112072419D02*
X132588971Y-112072419D01*
X132588971Y-112072419D02*
X132684209Y-112024800D01*
X132684209Y-112024800D02*
X132731828Y-111977180D01*
D11*
X158460912Y-92279510D02*
X156960912Y-92279510D01*
X156960912Y-92279510D02*
X156960912Y-92636653D01*
X156960912Y-92636653D02*
X157032341Y-92850939D01*
X157032341Y-92850939D02*
X157175198Y-92993796D01*
X157175198Y-92993796D02*
X157318055Y-93065225D01*
X157318055Y-93065225D02*
X157603769Y-93136653D01*
X157603769Y-93136653D02*
X157818055Y-93136653D01*
X157818055Y-93136653D02*
X158103769Y-93065225D01*
X158103769Y-93065225D02*
X158246626Y-92993796D01*
X158246626Y-92993796D02*
X158389484Y-92850939D01*
X158389484Y-92850939D02*
X158460912Y-92636653D01*
X158460912Y-92636653D02*
X158460912Y-92279510D01*
X158389484Y-94350939D02*
X158460912Y-94208082D01*
X158460912Y-94208082D02*
X158460912Y-93922368D01*
X158460912Y-93922368D02*
X158389484Y-93779510D01*
X158389484Y-93779510D02*
X158246626Y-93708082D01*
X158246626Y-93708082D02*
X157675198Y-93708082D01*
X157675198Y-93708082D02*
X157532341Y-93779510D01*
X157532341Y-93779510D02*
X157460912Y-93922368D01*
X157460912Y-93922368D02*
X157460912Y-94208082D01*
X157460912Y-94208082D02*
X157532341Y-94350939D01*
X157532341Y-94350939D02*
X157675198Y-94422368D01*
X157675198Y-94422368D02*
X157818055Y-94422368D01*
X157818055Y-94422368D02*
X157960912Y-93708082D01*
X158389484Y-94993796D02*
X158460912Y-95136653D01*
X158460912Y-95136653D02*
X158460912Y-95422367D01*
X158460912Y-95422367D02*
X158389484Y-95565224D01*
X158389484Y-95565224D02*
X158246626Y-95636653D01*
X158246626Y-95636653D02*
X158175198Y-95636653D01*
X158175198Y-95636653D02*
X158032341Y-95565224D01*
X158032341Y-95565224D02*
X157960912Y-95422367D01*
X157960912Y-95422367D02*
X157960912Y-95208082D01*
X157960912Y-95208082D02*
X157889484Y-95065224D01*
X157889484Y-95065224D02*
X157746626Y-94993796D01*
X157746626Y-94993796D02*
X157675198Y-94993796D01*
X157675198Y-94993796D02*
X157532341Y-95065224D01*
X157532341Y-95065224D02*
X157460912Y-95208082D01*
X157460912Y-95208082D02*
X157460912Y-95422367D01*
X157460912Y-95422367D02*
X157532341Y-95565224D01*
X158460912Y-96279510D02*
X157460912Y-96279510D01*
X156960912Y-96279510D02*
X157032341Y-96208082D01*
X157032341Y-96208082D02*
X157103769Y-96279510D01*
X157103769Y-96279510D02*
X157032341Y-96350939D01*
X157032341Y-96350939D02*
X156960912Y-96279510D01*
X156960912Y-96279510D02*
X157103769Y-96279510D01*
X157460912Y-97636654D02*
X158675198Y-97636654D01*
X158675198Y-97636654D02*
X158818055Y-97565225D01*
X158818055Y-97565225D02*
X158889484Y-97493796D01*
X158889484Y-97493796D02*
X158960912Y-97350939D01*
X158960912Y-97350939D02*
X158960912Y-97136654D01*
X158960912Y-97136654D02*
X158889484Y-96993796D01*
X158389484Y-97636654D02*
X158460912Y-97493796D01*
X158460912Y-97493796D02*
X158460912Y-97208082D01*
X158460912Y-97208082D02*
X158389484Y-97065225D01*
X158389484Y-97065225D02*
X158318055Y-96993796D01*
X158318055Y-96993796D02*
X158175198Y-96922368D01*
X158175198Y-96922368D02*
X157746626Y-96922368D01*
X157746626Y-96922368D02*
X157603769Y-96993796D01*
X157603769Y-96993796D02*
X157532341Y-97065225D01*
X157532341Y-97065225D02*
X157460912Y-97208082D01*
X157460912Y-97208082D02*
X157460912Y-97493796D01*
X157460912Y-97493796D02*
X157532341Y-97636654D01*
X157460912Y-98350939D02*
X158460912Y-98350939D01*
X157603769Y-98350939D02*
X157532341Y-98422368D01*
X157532341Y-98422368D02*
X157460912Y-98565225D01*
X157460912Y-98565225D02*
X157460912Y-98779511D01*
X157460912Y-98779511D02*
X157532341Y-98922368D01*
X157532341Y-98922368D02*
X157675198Y-98993797D01*
X157675198Y-98993797D02*
X158460912Y-98993797D01*
X158460912Y-100850939D02*
X156960912Y-100850939D01*
X157532341Y-100850939D02*
X157460912Y-100993797D01*
X157460912Y-100993797D02*
X157460912Y-101279511D01*
X157460912Y-101279511D02*
X157532341Y-101422368D01*
X157532341Y-101422368D02*
X157603769Y-101493797D01*
X157603769Y-101493797D02*
X157746626Y-101565225D01*
X157746626Y-101565225D02*
X158175198Y-101565225D01*
X158175198Y-101565225D02*
X158318055Y-101493797D01*
X158318055Y-101493797D02*
X158389484Y-101422368D01*
X158389484Y-101422368D02*
X158460912Y-101279511D01*
X158460912Y-101279511D02*
X158460912Y-100993797D01*
X158460912Y-100993797D02*
X158389484Y-100850939D01*
X157460912Y-102065225D02*
X158460912Y-102422368D01*
X157460912Y-102779511D02*
X158460912Y-102422368D01*
X158460912Y-102422368D02*
X158818055Y-102279511D01*
X158818055Y-102279511D02*
X158889484Y-102208082D01*
X158889484Y-102208082D02*
X158960912Y-102065225D01*
X160090114Y-92279510D02*
X160090114Y-92779510D01*
X160875828Y-92993796D02*
X160875828Y-92279510D01*
X160875828Y-92279510D02*
X159375828Y-92279510D01*
X159375828Y-92279510D02*
X159375828Y-92993796D01*
X160875828Y-93636653D02*
X159875828Y-93636653D01*
X160161542Y-93636653D02*
X160018685Y-93708082D01*
X160018685Y-93708082D02*
X159947257Y-93779511D01*
X159947257Y-93779511D02*
X159875828Y-93922368D01*
X159875828Y-93922368D02*
X159875828Y-94065225D01*
X160875828Y-94565224D02*
X159875828Y-94565224D01*
X159375828Y-94565224D02*
X159447257Y-94493796D01*
X159447257Y-94493796D02*
X159518685Y-94565224D01*
X159518685Y-94565224D02*
X159447257Y-94636653D01*
X159447257Y-94636653D02*
X159375828Y-94565224D01*
X159375828Y-94565224D02*
X159518685Y-94565224D01*
X160804400Y-95922368D02*
X160875828Y-95779510D01*
X160875828Y-95779510D02*
X160875828Y-95493796D01*
X160875828Y-95493796D02*
X160804400Y-95350939D01*
X160804400Y-95350939D02*
X160732971Y-95279510D01*
X160732971Y-95279510D02*
X160590114Y-95208082D01*
X160590114Y-95208082D02*
X160161542Y-95208082D01*
X160161542Y-95208082D02*
X160018685Y-95279510D01*
X160018685Y-95279510D02*
X159947257Y-95350939D01*
X159947257Y-95350939D02*
X159875828Y-95493796D01*
X159875828Y-95493796D02*
X159875828Y-95779510D01*
X159875828Y-95779510D02*
X159947257Y-95922368D01*
X160875828Y-97708081D02*
X159375828Y-97708081D01*
X159375828Y-97708081D02*
X160447257Y-98208081D01*
X160447257Y-98208081D02*
X159375828Y-98708081D01*
X159375828Y-98708081D02*
X160875828Y-98708081D01*
X160804400Y-99993796D02*
X160875828Y-99850939D01*
X160875828Y-99850939D02*
X160875828Y-99565225D01*
X160875828Y-99565225D02*
X160804400Y-99422367D01*
X160804400Y-99422367D02*
X160661542Y-99350939D01*
X160661542Y-99350939D02*
X160090114Y-99350939D01*
X160090114Y-99350939D02*
X159947257Y-99422367D01*
X159947257Y-99422367D02*
X159875828Y-99565225D01*
X159875828Y-99565225D02*
X159875828Y-99850939D01*
X159875828Y-99850939D02*
X159947257Y-99993796D01*
X159947257Y-99993796D02*
X160090114Y-100065225D01*
X160090114Y-100065225D02*
X160232971Y-100065225D01*
X160232971Y-100065225D02*
X160375828Y-99350939D01*
X160875828Y-100708081D02*
X159875828Y-100708081D01*
X159375828Y-100708081D02*
X159447257Y-100636653D01*
X159447257Y-100636653D02*
X159518685Y-100708081D01*
X159518685Y-100708081D02*
X159447257Y-100779510D01*
X159447257Y-100779510D02*
X159375828Y-100708081D01*
X159375828Y-100708081D02*
X159518685Y-100708081D01*
X159875828Y-101422367D02*
X160875828Y-101422367D01*
X160018685Y-101422367D02*
X159947257Y-101493796D01*
X159947257Y-101493796D02*
X159875828Y-101636653D01*
X159875828Y-101636653D02*
X159875828Y-101850939D01*
X159875828Y-101850939D02*
X159947257Y-101993796D01*
X159947257Y-101993796D02*
X160090114Y-102065225D01*
X160090114Y-102065225D02*
X160875828Y-102065225D01*
X159875828Y-102565225D02*
X159875828Y-103136653D01*
X159375828Y-102779510D02*
X160661542Y-102779510D01*
X160661542Y-102779510D02*
X160804400Y-102850939D01*
X160804400Y-102850939D02*
X160875828Y-102993796D01*
X160875828Y-102993796D02*
X160875828Y-103136653D01*
X160875828Y-103636653D02*
X159875828Y-103636653D01*
X160161542Y-103636653D02*
X160018685Y-103708082D01*
X160018685Y-103708082D02*
X159947257Y-103779511D01*
X159947257Y-103779511D02*
X159875828Y-103922368D01*
X159875828Y-103922368D02*
X159875828Y-104065225D01*
X159875828Y-105208082D02*
X160875828Y-105208082D01*
X159875828Y-104565224D02*
X160661542Y-104565224D01*
X160661542Y-104565224D02*
X160804400Y-104636653D01*
X160804400Y-104636653D02*
X160875828Y-104779510D01*
X160875828Y-104779510D02*
X160875828Y-104993796D01*
X160875828Y-104993796D02*
X160804400Y-105136653D01*
X160804400Y-105136653D02*
X160732971Y-105208082D01*
X159875828Y-105922367D02*
X161375828Y-105922367D01*
X159947257Y-105922367D02*
X159875828Y-106065225D01*
X159875828Y-106065225D02*
X159875828Y-106350939D01*
X159875828Y-106350939D02*
X159947257Y-106493796D01*
X159947257Y-106493796D02*
X160018685Y-106565225D01*
X160018685Y-106565225D02*
X160161542Y-106636653D01*
X160161542Y-106636653D02*
X160590114Y-106636653D01*
X160590114Y-106636653D02*
X160732971Y-106565225D01*
X160732971Y-106565225D02*
X160804400Y-106493796D01*
X160804400Y-106493796D02*
X160875828Y-106350939D01*
X160875828Y-106350939D02*
X160875828Y-106065225D01*
X160875828Y-106065225D02*
X160804400Y-105922367D01*
M02*
